<svg width="32" height="31" viewBox="0 0 32 31" fill="none" xmlns="http://www.w3.org/2000/svg">
<g clip-path="url(#clip0_250_632)">
<path fill-rule="evenodd" clip-rule="evenodd" d="M0.117493 13.9588V19.8708V19.9582C0.159776 20.1762 0.247749 20.351 0.377722 20.5241C0.377722 20.567 0.420574 20.567 0.420574 20.6115C0.465412 20.6541 0.507979 20.6541 0.552817 20.6992C0.725358 20.8292 0.900736 20.9169 1.07356 20.9169H1.16125H11.216C11.4768 20.9169 11.9462 20.9495 12.1241 20.7795C12.3892 20.5261 12.4067 20.0363 12.1096 19.7902C11.9544 19.6617 11.2228 19.6986 11.2228 19.6986H1.37834V10.2176L2.94682 11.7841C3.07679 11.9144 3.20705 11.9592 3.38186 11.9592C3.55497 11.9592 3.68522 11.9144 3.8152 11.7841L9.8666 5.74011L10.4753 5.13167C10.7375 4.86946 10.7375 4.47869 10.4753 4.26102C10.2148 4.04336 9.82233 4.04336 9.60467 4.26102L3.38214 10.4801L1.94421 9.04363C1.72655 8.82597 1.46632 8.74055 1.20552 8.74055C0.900736 8.74055 0.63852 8.82625 0.465695 9.04363C0.290601 9.21873 0.16006 9.52209 0.16006 9.78403V13.7408V13.9588H0.117493Z" fill="#2E3A97"/>
<path fill-rule="evenodd" clip-rule="evenodd" d="M21.0114 7.08183V1.16977V1.08236C20.9688 0.864415 20.8811 0.689605 20.7508 0.516496C20.7508 0.473645 20.7083 0.473645 20.7083 0.429091C20.6634 0.386523 20.6206 0.386523 20.5757 0.341402C20.4032 0.211713 20.2281 0.124023 20.0553 0.124023H19.9676H9.91285C9.65234 0.124023 9.34755 0.255983 9.17246 0.429091C8.95451 0.603902 8.86768 0.907267 8.86768 1.16948C8.86768 1.42971 8.99964 1.73279 9.17246 1.90817L11.0443 3.77774C11.3065 4.03825 11.6973 4.03825 11.9149 3.77774C11.9592 3.73517 12.0021 3.64748 12.0469 3.60321C12.1323 3.38697 12.0895 3.08219 11.9149 2.90709L10.2611 1.34259H19.7505V10.823L18.182 9.25675C18.0518 9.1265 17.9215 9.08166 17.747 9.08166C17.5736 9.08166 17.4433 9.1265 17.3136 9.25675L11.262 15.3008L10.6532 15.9095C10.391 16.1717 10.391 16.5625 10.6532 16.7801C10.9138 16.9975 11.3062 16.9975 11.5239 16.7801L17.7467 10.5605L19.1844 11.9967C19.4023 12.2146 19.6622 12.2998 19.9233 12.2998C20.2281 12.2998 20.4903 12.2143 20.6631 11.9967C20.8382 11.8216 20.9685 11.5182 20.9685 11.2563V7.2995V7.08155H21.0114V7.08183Z" fill="#EC1C3C"/>
<path fill-rule="evenodd" clip-rule="evenodd" d="M14.2309 19.7292C14.0791 19.7292 13.9644 19.8192 13.9644 19.9401C13.9644 20.6626 13.9644 20.6626 13.9644 20.6626C13.9644 20.7832 14.0791 20.8734 14.2309 20.8734C14.8231 20.8734 14.8231 20.8734 14.8231 20.8734C14.9659 20.8734 15.0805 20.7832 15.0805 20.6626C15.0805 19.9401 15.0805 19.9401 15.0805 19.9401C15.0805 19.8192 14.9659 19.7292 14.8231 19.7292H14.2309Z" fill="#2E3A97"/>
<path fill-rule="evenodd" clip-rule="evenodd" d="M16.7416 19.7292C16.5897 19.7292 16.4751 19.8192 16.4751 19.9401C16.4751 20.6626 16.4751 20.6626 16.4751 20.6626C16.4751 20.7832 16.5897 20.8734 16.7416 20.8734C17.3338 20.8734 17.3338 20.8734 17.3338 20.8734C17.4766 20.8734 17.5912 20.7832 17.5912 20.6626C17.5912 19.9401 17.5912 19.9401 17.5912 19.9401C17.5912 19.8192 17.4766 19.7292 17.3338 19.7292H16.7416Z" fill="#2E3A97"/>
<path fill-rule="evenodd" clip-rule="evenodd" d="M19.2524 19.7292C19.1006 19.7292 18.986 19.8192 18.986 19.9401C18.986 20.6626 18.986 20.6626 18.986 20.6626C18.986 20.7832 19.1006 20.8734 19.2524 20.8734C19.8447 20.8734 19.8447 20.8734 19.8447 20.8734C19.9874 20.8734 20.1021 20.7832 20.1021 20.6626C20.1021 19.9401 20.1021 19.9401 20.1021 19.9401C20.1021 19.8192 19.9874 19.7292 19.8447 19.7292H19.2524Z" fill="#2E3A97"/>
</g>
<defs>
<clipPath id="clip0_250_632">
<rect width="32" height="31" fill="white"/>
</clipPath>
</defs>
</svg>
