<svg width="30" height="30" viewBox="0 0 30 30" fill="none" xmlns="http://www.w3.org/2000/svg">
<g clip-path="url(#clip0_135_643)">
<path d="M22.4766 13.8909C19.9454 12.1732 16.7089 12.8755 15.0088 15.4594C13.5895 17.619 11.4475 17.8882 10.6135 17.8882C7.90968 17.8882 6.05735 15.9861 5.51014 14.0168H5.50722C5.50429 13.9963 5.49844 13.9817 5.49259 13.9612C5.48673 13.9407 5.48088 13.9173 5.47503 13.8939C5.25849 13.0745 5.20581 12.6795 5.20581 11.8075C5.20581 7.0991 10.0371 1.85817 16.9928 1.85817C24.1153 1.85817 28.1916 7.28053 29.2392 10.2946C29.2216 10.2419 29.207 10.1892 29.1865 10.1336C27.1732 4.24015 21.5812 0 15 0C6.71576 0 0 6.71576 0 15C0 22.4064 5.34042 28.7446 12.7497 28.7446C18.6578 28.7446 22.6288 25.4321 24.4518 20.8671C25.4526 18.3681 24.7415 15.4331 22.4766 13.8909Z" fill="#003763"/>
<path d="M29.3387 10.5872C28.4637 7.64632 24.3582 1.85818 16.9986 1.85818C10.0429 1.85818 5.21167 7.09911 5.21167 11.8075C5.21167 12.6795 5.26434 13.0745 5.48089 13.8939C5.39017 13.534 5.34335 13.174 5.34335 12.8229C5.34335 7.92139 10.2507 4.52108 15.2985 4.52108C22.1284 4.52108 27.6678 10.0605 27.6678 16.8904C27.6678 22.2454 24.5864 26.8806 20.1093 29.1075V29.1104C25.8798 27.0211 30.0029 21.4934 30.0029 15C30 13.4637 29.7922 12.1089 29.3387 10.5872Z" fill="#E4022D"/>
</g>
<defs>
<clipPath id="clip0_135_643">
<rect width="30" height="29.1104" fill="white"/>
</clipPath>
</defs>
</svg>
