<svg width="10" height="10" viewBox="0 0 10 10" fill="none" xmlns="http://www.w3.org/2000/svg">
<path d="M5.00471 0V0.831683H0.831683V8.31921H8.31921V4.14618H9.15089V8.73505C9.14115 8.9583 8.95877 9.14115 8.73505 9.15089H0.415842C0.192594 9.14115 0.00974257 8.95877 0 8.73505V0.415842C0.00974257 0.192594 0.192119 0.00974257 0.415842 0H5.00471ZM5.95521 0.415842C5.95521 0.186178 6.14139 0 6.37105 0C7.14642 0 8.73505 0 8.73505 0C8.74717 0.000475248 8.75929 0.00106936 8.77129 0.00154461C8.98063 0.029109 9.14162 0.203881 9.15089 0.415842C9.15089 0.415842 9.15089 2.00448 9.15089 2.77984C9.15089 2.8901 9.10717 2.99584 9.02911 3.0739C8.95117 3.15184 8.84543 3.19568 8.73505 3.19568C8.62479 3.19568 8.51905 3.15184 8.44099 3.0739C8.36305 2.99584 8.31921 2.8901 8.31921 2.77984C8.31921 2.10154 8.31921 0.831683 8.31921 0.831683C8.31921 0.831683 7.04935 0.831683 6.37105 0.831683C6.26079 0.831683 6.15505 0.787842 6.07699 0.709901C5.99905 0.631842 5.95521 0.526099 5.95521 0.415842Z" fill="white"/>
<path d="M8.90255 0.83644C8.90255 0.83644 5.84302 3.89585 4.86924 4.86963C4.70694 5.03193 4.44389 5.03193 4.2816 4.86963C4.28148 4.86963 4.28148 4.86951 4.28136 4.86951C4.11894 4.70709 4.11894 4.44381 4.28136 4.28139C5.25526 3.30749 8.31443 0.248322 8.31443 0.248322C8.51047 0.444361 8.70651 0.640401 8.90255 0.83644Z" fill="white"/>
</svg>
